# Blender 5.1.2
# www.blender.org
mtllib Magtest2.mtl
o NoScope.001
v -0.189996 0.672365 -0.175032
v -0.135792 0.778534 -0.109358
v -0.181871 0.710589 -0.151386
v 0.130907 0.778533 -0.109423
v 0.119006 0.979231 0.014745
v -0.123828 0.979232 0.014805
v 0.176966 0.710588 -0.151472
v 0.160150 0.041269 -0.565678
v -0.182764 0.070575 -0.547462
v -0.190819 0.099431 -0.529468
v -0.130803 0.026380 -0.574817
v 0.125685 0.026379 -0.574879
v -0.165262 0.041270 -0.565598
v 0.185721 0.101640 -0.528192
v 0.185087 0.665418 -0.179420
v 0.177660 0.070574 -0.547551
v -0.094796 3.591968 -1.563283
v -0.094795 3.409980 -1.556734
v -0.094849 3.402026 -1.777759
v -0.094850 3.584014 -1.784308
v 0.089162 3.584014 -1.784353
v 0.089163 3.402025 -1.777804
v 0.089217 3.409980 -1.556779
v 0.089216 3.591968 -1.563328
v -0.106024 3.584131 -1.781070
v -0.105968 3.592370 -1.552113
v 0.100394 3.592370 -1.552163
v 0.100337 3.584130 -1.781121
v -0.145400 3.399153 -1.857593
v -0.145401 3.581141 -1.864143
v -0.156574 3.581257 -1.860905
v -0.145576 3.555410 -2.579129
v -0.156752 3.555330 -2.581347
v -0.139199 3.554856 -2.594527
v -0.147753 3.554548 -2.603071
v -0.126020 3.554224 -2.612074
v -0.123794 3.554626 -2.600906
v 0.117704 3.554625 -2.600967
v 0.119924 3.554223 -2.612134
v 0.133112 3.554855 -2.594594
v 0.141663 3.554547 -2.603142
v 0.150671 3.555329 -2.581423
v 0.139497 3.555409 -2.579199
v 0.139673 3.581140 -1.864213
v 0.150848 3.581256 -1.860981
v -0.145575 3.373422 -2.572579
v -0.139198 3.372868 -2.587977
v 0.139674 3.399152 -1.857663
v 0.139498 3.373421 -2.572650
v 0.117705 3.372638 -2.594416
v -0.123793 3.372638 -2.594357
v 0.133113 3.372867 -2.588044
v -0.109389 1.095278 -0.212997
v -0.105361 1.103123 -0.224137
v -0.150564 0.861227 -0.394504
v -0.156361 0.853381 -0.383364
v -0.105355 1.086154 -0.200047
v -0.150559 0.844259 -0.370416
v 0.145546 0.844258 -0.370489
v 0.100428 1.086154 -0.200098
v 0.100422 1.103122 -0.224187
v 0.145540 0.861226 -0.394576
v 0.104456 1.095277 -0.213049
v 0.145501 0.981839 -0.554381
v 0.100387 1.212009 -0.368455
v -0.105396 1.212009 -0.368405
v -0.150603 0.981840 -0.554308
v 0.100382 1.230522 -0.391374
v 0.145496 1.000352 -0.577302
v -0.150609 1.000353 -0.577230
v -0.105402 1.230522 -0.391324
v 0.104415 1.221963 -0.380778
v -0.109430 1.221963 -0.380725
v 0.145459 1.131213 -0.728831
v 0.100349 1.348659 -0.528172
v -0.105435 1.348660 -0.528121
v -0.150646 1.131214 -0.728758
v 0.100343 1.368642 -0.549825
v 0.145454 1.151192 -0.750484
v -0.150651 1.151193 -0.750411
v -0.105440 1.368642 -0.549774
v 0.104376 1.359400 -0.539813
v -0.109468 1.359401 -0.539761
v 0.145419 1.291733 -0.893080
v 0.100312 1.495518 -0.678558
v -0.105472 1.495519 -0.678507
v -0.150686 1.291734 -0.893007
v 0.100307 1.516880 -0.698851
v 0.145414 1.313094 -0.913372
v -0.150690 1.313095 -0.913299
v -0.105476 1.516880 -0.698800
v 0.104340 1.507000 -0.689469
v -0.109504 1.507001 -0.689416
v 0.145382 1.462706 -1.046419
v 0.100278 1.651945 -0.818962
v -0.105505 1.651945 -0.818911
v -0.150723 1.462707 -1.046346
v 0.100274 1.674594 -0.837806
v 0.145377 1.485355 -1.065263
v -0.150727 1.485356 -1.065191
v -0.105510 1.674595 -0.837755
v 0.104306 1.664122 -0.829093
v -0.109538 1.664123 -0.829041
v 0.145348 1.643391 -1.188185
v 0.100247 1.817267 -0.948777
v -0.105537 1.817267 -0.948726
v -0.150757 1.643392 -1.188112
v 0.100243 1.841105 -0.966092
v 0.145343 1.667230 -1.205500
v -0.150761 1.667231 -1.205427
v -0.105541 1.841105 -0.966042
v 0.104275 1.830082 -0.958087
v -0.109569 1.830083 -0.958035
v 0.145316 1.833006 -1.317764
v 0.100218 1.990764 -1.067441
v -0.105565 1.990765 -1.067391
v -0.150788 1.833007 -1.317692
v 0.100215 2.015691 -1.083152
v 0.145313 1.857932 -1.333474
v -0.150792 1.857933 -1.333401
v -0.105569 2.015691 -1.083102
v 0.104247 2.004164 -1.075889
v -0.109598 2.004165 -1.075837
v 0.145288 2.030731 -1.434596
v 0.100193 2.171690 -1.174443
v -0.105591 2.171690 -1.174392
v -0.150816 2.030732 -1.434523
v 0.100189 2.197594 -1.188479
v 0.145285 2.056638 -1.448633
v -0.150819 2.056639 -1.448560
v -0.105594 2.197595 -1.188428
v 0.104221 2.185616 -1.181989
v -0.109623 2.185617 -1.181937
v 0.145264 2.235711 -1.538173
v 0.100170 2.359258 -1.269314
v -0.105614 2.359258 -1.269263
v -0.150841 2.235712 -1.538101
v 0.100167 2.386032 -1.281618
v 0.145261 2.262483 -1.550476
v -0.150844 2.262484 -1.550403
v -0.105617 2.386032 -1.281567
v 0.104199 2.373652 -1.275931
v -0.109646 2.373653 -1.275878
v 0.145242 2.447056 -1.628049
v 0.100150 2.552661 -1.351649
v -0.105633 2.552662 -1.351598
v -0.150862 2.447057 -1.627977
v 0.100148 2.580184 -1.362165
v 0.145240 2.474580 -1.638565
v -0.150865 2.474581 -1.638493
v -0.105636 2.580185 -1.362115
v 0.104179 2.567457 -1.357304
v -0.109665 2.567458 -1.357252
v 0.145224 2.663853 -1.703835
v 0.100134 2.751057 -1.421088
v -0.105650 2.751058 -1.421038
v -0.150880 2.663854 -1.703762
v 0.100132 2.779213 -1.429773
v 0.145222 2.692010 -1.712518
v -0.150882 2.692011 -1.712445
v -0.105652 2.779213 -1.429723
v 0.104163 2.766193 -1.425759
v -0.109681 2.766194 -1.425707
v 0.145210 2.885166 -1.765201
v 0.100121 2.953590 -1.477333
v -0.105663 2.953591 -1.477283
v -0.150894 2.885167 -1.765128
v 0.100119 2.982256 -1.484147
v 0.145209 2.913832 -1.772014
v -0.150896 2.913833 -1.771941
v -0.105664 2.982256 -1.484096
v 0.104150 2.969001 -1.480998
v -0.109694 2.969001 -1.480945
v 0.145199 3.110034 -1.811882
v 0.100111 3.159383 -1.520139
v -0.105673 3.159383 -1.520089
v -0.150905 3.110035 -1.811809
v 0.150998 3.125652 -1.814525
v -0.156705 3.125653 -1.814450
v 0.145198 3.139085 -1.816797
v -0.150906 3.139086 -1.816725
v 0.100110 3.188434 -1.525052
v -0.105674 3.188435 -1.525002
v -0.109704 3.175002 -1.522730
v 0.104141 3.175001 -1.522782
v 0.145192 3.337485 -1.843678
v 0.100105 3.367545 -1.549321
v -0.105679 3.367546 -1.549270
v -0.150912 3.337486 -1.843605
v 0.150921 3.353298 -1.845294
v -0.156642 3.353299 -1.845218
v 0.145192 3.366797 -1.846671
v -0.150913 3.366798 -1.846598
v 0.100104 3.396857 -1.552314
v -0.105680 3.396858 -1.552264
v 0.104135 3.383303 -1.550933
v -0.109710 3.383303 -1.550880
v 0.160136 0.072449 -0.616076
v 0.110207 0.086030 -0.607563
v 0.133574 0.097896 -0.600271
v 0.125672 0.057560 -0.625279
v 0.086842 0.080537 -0.610974
v -0.130815 0.057561 -0.625216
v -0.097974 0.080538 -0.610929
v -0.118340 0.086031 -0.607506
v -0.165275 0.072450 -0.615996
v -0.138704 0.097897 -0.600205
v -0.182776 0.101756 -0.597860
v -0.156273 0.122872 -0.584726
v -0.190831 0.130612 -0.579867
v -0.156183 0.697690 -0.229062
v -0.190009 0.703546 -0.225431
v -0.156177 0.735919 -0.205410
v -0.181884 0.741770 -0.201784
v -0.135804 0.809718 -0.159758
v -0.105636 0.804287 -0.164070
v -0.105606 0.999237 -0.043719
v -0.123840 1.010413 -0.035595
v 0.118993 1.010412 -0.035654
v 0.100755 0.999237 -0.043770
v 0.130895 0.809717 -0.159823
v 0.100725 0.804287 -0.164120
v 0.151245 0.735918 -0.205485
v 0.176953 0.741768 -0.201872
v 0.185075 0.696600 -0.229820
v 0.151238 0.690743 -0.233435
v 0.185708 0.132821 -0.578592
v 0.151150 0.122871 -0.584801
v 0.177646 0.101755 -0.597950
v -0.125648 0.418501 -1.053027
v 0.120297 0.418500 -1.053087
v 0.120350 0.250207 -0.832281
v -0.125594 0.250207 -0.832221
v -0.147329 0.257540 -0.826995
v 0.141983 0.607465 -1.256285
v 0.142034 0.425477 -1.047404
v 0.142088 0.257539 -0.827066
v 0.151041 0.442325 -1.033671
v 0.150990 0.623377 -1.241479
v 0.150943 0.817635 -1.437003
v -0.156432 0.623378 -1.241403
v -0.156480 0.817636 -1.436928
v -0.147481 0.802727 -1.452746
v -0.147433 0.607466 -1.256214
v -0.156382 0.442326 -1.033595
v -0.147382 0.425478 -1.047333
v -0.156329 0.275251 -0.814390
v 0.151094 0.275250 -0.814466
v -0.125699 0.600875 -1.262353
v -0.125746 0.796551 -1.459302
v -0.125791 1.004688 -1.643032
v -0.147525 1.010422 -1.636086
v -0.125832 1.224392 -1.812757
v -0.147566 1.229664 -1.805451
v -0.125869 1.454732 -1.967748
v -0.147603 1.459511 -1.960112
v -0.125902 1.694712 -2.107342
v -0.147636 1.698984 -2.099411
v -0.125932 1.943311 -2.230942
v -0.147666 1.947054 -2.222748
v -0.125957 2.199461 -2.338020
v -0.147691 2.202661 -2.329596
v -0.125979 2.462064 -2.428113
v -0.147712 2.464706 -2.419501
v -0.125996 2.729998 -2.500840
v 0.120198 0.796550 -1.459363
v 0.120154 1.004687 -1.643092
v 0.120113 1.224392 -1.812817
v 0.120075 1.454731 -1.967808
v 0.120042 1.694711 -2.107403
v 0.120012 1.943310 -2.231003
v 0.119987 2.199460 -2.338080
v 0.119966 2.462063 -2.428173
v 0.119949 2.729997 -2.500900
v -0.126008 3.002117 -2.555886
v 0.119936 3.002116 -2.555946
v -0.147729 2.732071 -2.492072
v -0.147742 3.003612 -2.547002
v -0.126016 3.277251 -2.593017
v 0.119928 3.277250 -2.593077
v 0.141667 3.278162 -2.584126
v 0.141674 3.003611 -2.547072
v 0.141687 2.732072 -2.492142
v 0.141704 2.464705 -2.419572
v 0.141725 2.202660 -2.329668
v 0.141750 1.947053 -2.222820
v 0.141780 1.698983 -2.099482
v 0.150734 2.210382 -2.309353
v 0.150712 2.471081 -2.398795
v 0.150696 2.737075 -2.470993
v 0.150683 3.007222 -2.525642
v 0.150675 3.280361 -2.562504
v -0.147750 3.278163 -2.584055
v -0.156740 3.007223 -2.525567
v -0.156748 3.280362 -2.562427
v 0.120246 0.600874 -1.262413
v 0.141936 0.802726 -1.452818
v 0.150899 1.024264 -1.619402
v 0.141891 1.010421 -1.636157
v 0.150858 1.242381 -1.787896
v 0.141850 1.229662 -1.805522
v 0.150821 1.471047 -1.941764
v 0.141814 1.459510 -1.960183
v 0.150788 1.709291 -2.080348
v 0.150759 1.956087 -2.203052
v 0.151342 0.853380 -0.383440
v -0.156406 0.991794 -0.566630
v 0.151298 0.991793 -0.566706
v -0.156448 1.141955 -0.740398
v 0.151256 1.141954 -0.740473
v -0.156487 1.303219 -0.903916
v 0.151216 1.303218 -0.903991
v -0.156524 1.474884 -1.056477
v 0.151179 1.474883 -1.056552
v -0.156558 1.656207 -1.197420
v 0.151145 1.656206 -1.197496
v -0.156589 1.846408 -1.326136
v 0.151114 1.846407 -1.326212
v -0.156617 2.044660 -1.442068
v 0.151086 2.044659 -1.442143
v -0.156642 2.250104 -1.544714
v 0.151062 2.250104 -1.544790
v -0.156663 2.461854 -1.633629
v 0.151041 2.461853 -1.633704
v -0.156680 2.678991 -1.708429
v 0.151023 2.678990 -1.708504
v -0.156694 2.900579 -1.768789
v 0.151009 2.900578 -1.768865
v -0.105873 1.710944 -1.138418
v -0.156419 1.664195 -1.203200
v -0.156386 1.483413 -1.063545
v -0.105840 1.534299 -1.001960
v -0.156349 1.312150 -0.912366
v -0.105804 1.366958 -0.854241
v -0.156310 1.151142 -0.750310
v -0.105766 1.209634 -0.695892
v -0.156268 1.001077 -0.578069
v -0.105725 1.063003 -0.527596
v -0.156224 0.862601 -0.396382
v -0.105682 0.927695 -0.350067
v -0.156178 0.736301 -0.206029
v -0.106021 3.361444 -1.765748
v -0.156565 3.126964 -1.814671
v -0.106015 3.140235 -1.735894
v -0.156554 2.903058 -1.769377
v -0.106004 2.921452 -1.691637
v -0.156540 2.682591 -1.709536
v -0.105991 2.706033 -1.633166
v -0.156523 2.466512 -1.635403
v -0.105974 2.494898 -1.560730
v -0.156502 2.255742 -1.547297
v -0.105953 2.288956 -1.474641
v -0.156478 2.051190 -1.445595
v -0.105930 2.089083 -1.375267
v -0.156450 1.853725 -1.330731
v -0.105903 1.896135 -1.263031
v 0.151003 1.664194 -1.203275
v 0.100489 1.710944 -1.138469
v 0.100522 1.534298 -1.002011
v 0.151037 1.483412 -1.063621
v 0.100557 1.366958 -0.854292
v 0.151074 1.312149 -0.912441
v 0.100596 1.209633 -0.695943
v 0.151113 1.151141 -0.750385
v 0.100637 1.063003 -0.527647
v 0.151155 1.001076 -0.578144
v 0.100680 0.927695 -0.350118
v 0.151199 0.862600 -0.396457
v 0.151245 0.736300 -0.206105
v 0.100340 3.361444 -1.765799
v 0.100347 3.140234 -1.735945
v 0.150858 3.126964 -1.814747
v 0.100357 2.921451 -1.691688
v 0.150869 2.903057 -1.769453
v 0.100371 2.706032 -1.633216
v 0.150882 2.682591 -1.709612
v 0.100388 2.494898 -1.560781
v 0.150900 2.466512 -1.635479
v 0.100408 2.288955 -1.474691
v 0.150921 2.255741 -1.547373
v 0.100432 2.089082 -1.375317
v 0.150945 2.051189 -1.445671
v 0.100459 1.896134 -1.263082
v 0.150973 1.853724 -1.330806
v -0.105827 1.844998 -0.952625
v -0.105796 1.680216 -0.825332
v -0.105763 1.524114 -0.687534
v -0.105727 1.377358 -0.539822
v -0.105689 1.240577 -0.382827
v -0.105648 1.114358 -0.217223
v -0.105965 3.384640 -1.537820
v -0.105959 3.178289 -1.509972
v -0.105949 2.974201 -1.468686
v -0.105937 2.773250 -1.414142
v -0.105921 2.576298 -1.346571
v -0.105902 2.384186 -1.266264
v -0.105880 2.197736 -1.173564
v -0.105855 2.017752 -1.068868
v 0.100535 1.844998 -0.952676
v 0.100566 1.680215 -0.825382
v 0.100599 1.524113 -0.687584
v 0.100635 1.377358 -0.539873
v 0.100673 1.240577 -0.382878
v 0.100713 1.114357 -0.217274
v 0.100396 3.384640 -1.537871
v 0.100403 3.178289 -1.510023
v 0.100412 2.974200 -1.468737
v 0.100425 2.773250 -1.414192
v 0.100441 2.576297 -1.346622
v 0.100460 2.384186 -1.266315
v 0.100482 2.197736 -1.173614
v 0.100507 2.017751 -1.068919
v -0.156564 1.242382 -1.787821
v -0.156524 1.024265 -1.619326
v -0.156727 2.737076 -2.470917
v -0.156710 2.471082 -2.398720
v -0.156689 2.210383 -2.309277
v -0.156664 1.956088 -2.202977
v -0.156635 1.709292 -2.080272
v -0.156602 1.471048 -1.941689
vn 0.0005 -0.5262 0.8503
vn 0.0005 -0.5262 0.8504
vn 0.0001 -0.5261 0.8504
vn 0.0002 -0.5262 0.8504
vn 0.0002 -0.5261 0.8504
vn -0.0000 -0.5262 0.8503
vn 0.0002 -0.5264 0.8502
vn 0.0013 -0.5262 0.8504
vn 0.0150 -0.5261 0.8503
vn 0.0002 -0.5260 0.8505
vn -0.0037 -0.5264 0.8503
vn 0.0004 -0.5261 0.8504
vn 0.0115 -0.5310 0.8473
vn 1.0000 -0.0000 -0.0002
vn -1.0000 -0.0000 0.0002
vn -0.0002 -0.0360 -0.9994
vn -0.0000 0.9994 -0.0360
vn 0.6533 0.6190 -0.4359
vn 0.8450 -0.0192 -0.5344
vn 0.5465 0.7498 -0.3730
vn -0.5471 0.7741 0.3187
vn -0.6429 0.6632 0.3832
vn 0.9808 0.0070 0.1947
vn 0.9240 0.0138 0.3822
vn -0.0000 0.9994 -0.0359
vn -0.0000 0.9993 -0.0361
vn -0.9878 0.1381 0.0713
vn -0.9488 0.2800 -0.1459
vn -0.9118 0.3395 -0.2310
vn -0.9877 0.1408 0.0674
vn -0.9569 -0.0185 0.2897
vn -0.9295 -0.0800 0.3602
vn 0.0002 -0.5758 0.8176
vn 0.0002 -0.5759 0.8176
vn -0.0002 0.5758 -0.8176
vn 0.0001 0.8176 0.5759
vn 0.0001 0.8176 0.5758
vn 0.0001 0.8175 0.5759
vn 0.0002 -0.6284 0.7779
vn -0.0002 0.6284 -0.7779
vn 0.0002 0.7779 0.6284
vn 0.0002 0.7779 0.6283
vn 0.0002 0.7780 0.6283
vn 0.0002 -0.6781 0.7349
vn -0.0002 0.6781 -0.7349
vn 0.0002 0.7349 0.6782
vn 0.0002 0.7348 0.6783
vn 0.0002 0.7348 0.6782
vn 0.0002 0.7349 0.6781
vn 0.0002 -0.7250 0.6887
vn -0.0002 0.7250 -0.6888
vn 0.0002 0.6887 0.7250
vn 0.0002 0.6886 0.7251
vn 0.0002 0.6887 0.7251
vn 0.0002 0.6888 0.7249
vn 0.0002 -0.7687 0.6396
vn -0.0002 0.7687 -0.6396
vn 0.0002 0.6396 0.7687
vn 0.0002 0.6395 0.7688
vn 0.0001 -0.8091 0.5877
vn -0.0001 0.8091 -0.5877
vn 0.0002 0.5877 0.8091
vn 0.0001 -0.8460 0.5332
vn -0.0001 0.8460 -0.5332
vn 0.0002 0.5332 0.8460
vn 0.0002 0.5331 0.8460
vn 0.0002 0.5333 0.8459
vn 0.0001 -0.8792 0.4764
vn -0.0001 0.8792 -0.4764
vn 0.0002 0.4764 0.8792
vn 0.0002 0.4765 0.8792
vn 0.0001 -0.9086 0.4176
vn -0.0001 0.9086 -0.4176
vn 0.0002 0.4176 0.9086
vn 0.0002 0.4175 0.9087
vn 0.0001 -0.9341 0.3569
vn -0.0001 0.9341 -0.3569
vn 0.0002 0.3569 0.9341
vn 0.0002 0.3569 0.9342
vn 0.0002 0.3570 0.9341
vn 0.0001 -0.9556 0.2947
vn -0.0001 0.9556 -0.2947
vn 0.0002 0.2948 0.9556
vn 0.0002 0.2947 0.9556
vn 0.0001 -0.9729 0.2313
vn -0.0001 0.9729 -0.2313
vn 0.0002 0.2313 0.9729
vn 0.0002 0.2312 0.9729
vn -0.0000 -0.9860 0.1668
vn 0.8192 -0.0755 -0.5686
vn 0.6487 -0.3525 -0.6745
vn -0.6491 -0.3525 -0.6741
vn -0.8194 -0.0755 -0.5682
vn 0.6266 0.1383 -0.7670
vn -0.6270 0.1383 -0.7667
vn -0.0000 0.9860 -0.1668
vn -0.7067 0.1317 0.6952
vn -0.5773 -0.0109 0.8164
vn 0.5777 -0.0110 0.8162
vn -0.5637 0.2993 0.7699
vn 0.7070 0.1317 0.6948
vn 0.5640 0.2993 0.7696
vn -0.0000 -0.9948 0.1016
vn 0.8179 -0.0386 -0.5741
vn 0.6507 -0.3044 -0.6956
vn -0.6489 -0.3062 -0.6966
vn -0.8181 -0.0360 -0.5739
vn 0.6256 0.1883 -0.7571
vn -0.6282 0.1870 -0.7552
vn -0.0000 0.9948 -0.1016
vn 0.5777 -0.0645 0.8137
vn 0.7061 0.0845 0.7031
vn -0.7057 0.0871 0.7031
vn -0.5751 -0.0660 0.8154
vn -0.5637 0.2480 0.7879
vn 0.5618 0.2496 0.7887
vn -0.0014 0.5269 -0.8499
vn -0.0009 0.5276 -0.8495
vn -0.0016 0.5266 -0.8501
vn -0.0008 0.5280 -0.8492
vn -0.0002 0.5283 -0.8491
vn 0.0004 0.5281 -0.8492
vn 0.0006 0.5276 -0.8495
vn 0.0010 0.5269 -0.8499
vn 0.0013 0.5265 -0.8502
vn 0.0003 0.5277 -0.8495
vn -0.0008 0.5271 -0.8498
vn -0.0014 0.5273 -0.8497
vn -0.0002 0.5261 -0.8504
vn -0.0003 0.5275 -0.8496
vn -0.0014 0.5271 -0.8498
vn -0.0025 0.5266 -0.8501
vn -0.0248 0.5278 -0.8490
vn -0.0263 0.5279 -0.8489
vn -0.0249 0.5600 -0.8281
vn -0.0327 0.5522 -0.8331
vn 0.0323 0.5522 -0.8331
vn 0.0245 0.5600 -0.8281
vn 0.0245 0.5278 -0.8490
vn 0.0259 0.5280 -0.8488
vn 0.0021 0.5266 -0.8501
vn 0.0260 0.5279 -0.8489
vn 0.0243 0.5280 -0.8489
vn 0.0009 0.5271 -0.8498
vn -0.0000 0.5274 -0.8496
vn -0.0008 0.5276 -0.8495
vn 0.0001 0.8504 0.5261
vn -0.1945 -0.7603 -0.6198
vn 0.1941 -0.7603 -0.6199
vn 0.2026 -0.7859 -0.5842
vn -0.2029 -0.7858 -0.5843
vn -0.7048 -0.5761 -0.4140
vn 0.7030 -0.5205 -0.4845
vn 0.7030 -0.5511 -0.4495
vn 0.7065 -0.5771 -0.4095
vn 0.9800 -0.1542 -0.1260
vn 0.9800 -0.1457 -0.1358
vn 0.9800 -0.1365 -0.1450
vn -0.9800 -0.1457 -0.1353
vn -0.9800 -0.1365 -0.1446
vn -0.7033 -0.4878 -0.5172
vn -0.7033 -0.5205 -0.4842
vn -0.9800 -0.1542 -0.1255
vn -0.7033 -0.5511 -0.4491
vn -0.9800 -0.1621 -0.1151
vn -0.9636 -0.2263 -0.1425
vn -0.7182 -0.5767 -0.3894
vn -0.4330 -0.7345 -0.5226
vn -0.1421 -0.7940 -0.5910
vn 0.1230 -0.7965 -0.5920
vn 0.3872 -0.7527 -0.5324
vn 0.6991 -0.5901 -0.4038
vn 0.9794 -0.1669 -0.1136
vn 0.9624 -0.2263 -0.1504
vn -0.1945 -0.7181 -0.6682
vn -0.1945 -0.6729 -0.7137
vn -0.1945 -0.6248 -0.7562
vn -0.7033 -0.4529 -0.5480
vn -0.1945 -0.5740 -0.7954
vn -0.7033 -0.4160 -0.5764
vn -0.1945 -0.5207 -0.8313
vn -0.7033 -0.3774 -0.6024
vn -0.1945 -0.4652 -0.8636
vn -0.7033 -0.3372 -0.6258
vn -0.1945 -0.4077 -0.8921
vn -0.7033 -0.2956 -0.6465
vn -0.1946 -0.3485 -0.9169
vn -0.7033 -0.2526 -0.6644
vn -0.1945 -0.2878 -0.9377
vn -0.7033 -0.2086 -0.6796
vn -0.1946 -0.2258 -0.9545
vn 0.1941 -0.6729 -0.7138
vn 0.1941 -0.6248 -0.7563
vn 0.1941 -0.5740 -0.7955
vn 0.1941 -0.5207 -0.8314
vn 0.1941 -0.4652 -0.8636
vn 0.1941 -0.4077 -0.8922
vn 0.1941 -0.3485 -0.9170
vn 0.1941 -0.2878 -0.9378
vn 0.1941 -0.2258 -0.9546
vn -0.1946 -0.1629 -0.9673
vn 0.1941 -0.1629 -0.9674
vn -0.7033 -0.1637 -0.6917
vn -0.7033 -0.1181 -0.7010
vn -0.1945 -0.0993 -0.9759
vn 0.1941 -0.0993 -0.9759
vn 0.7030 -0.0720 -0.7076
vn 0.7030 -0.1181 -0.7013
vn 0.7030 -0.1637 -0.6921
vn 0.7030 -0.2086 -0.6799
vn 0.7030 -0.2526 -0.6648
vn 0.7030 -0.2956 -0.6469
vn 0.7030 -0.3372 -0.6262
vn 0.9800 -0.0707 -0.1863
vn 0.9800 -0.0584 -0.1905
vn 0.9799 -0.0458 -0.1939
vn 0.9799 -0.0331 -0.1965
vn 0.9799 -0.0202 -0.1982
vn 0.9799 -0.0136 -0.1989
vn 0.7028 -0.0488 -0.7097
vn 0.1940 -0.0673 -0.9787
vn -0.1945 -0.0673 -0.9786
vn -0.7033 -0.0720 -0.7072
vn -0.9800 -0.0331 -0.1960
vn -0.7031 -0.0488 -0.7094
vn -0.9800 -0.0201 -0.1977
vn -0.9800 -0.0137 -0.1984
vn 0.1942 -0.7181 -0.6683
vn 0.7030 -0.4878 -0.5176
vn 0.9800 -0.1268 -0.1537
vn 0.7030 -0.4529 -0.5484
vn 0.9800 -0.1164 -0.1616
vn 0.7030 -0.4160 -0.5768
vn 0.9800 -0.1056 -0.1689
vn 0.7030 -0.3774 -0.6028
vn 0.9800 -0.0944 -0.1754
vn 0.9800 -0.0827 -0.1812
vn 0.3828 0.0332 0.9232
vn 0.1953 0.0353 0.9801
vn -0.1948 0.0353 0.9802
vn -0.3824 0.0332 0.9234
vn -0.9238 0.0138 0.3826
vn -0.9238 0.0138 0.3827
vn -0.9807 0.0070 0.1952
vn 0.5474 0.7740 0.3184
vn 0.6431 0.6631 0.3830
vn -0.5466 0.7499 -0.3727
vn -0.6535 0.6190 -0.4356
vn -0.8453 -0.0192 -0.5340
vn 0.9117 0.3395 -0.2313
vn 0.9488 0.2801 -0.1464
vn 0.9884 0.1348 0.0706
vn 0.9884 0.1346 0.0710
vn 0.9874 0.1421 0.0699
vn 0.9116 0.3396 -0.2315
vn 0.9300 -0.0736 0.3600
vn 0.9587 -0.0209 0.2835
vn -0.9299 -0.0969 0.3548
vn -0.9586 -0.0395 0.2820
vn -0.9883 0.1297 0.0801
vn -0.9883 0.1298 0.0798
vn -0.9873 0.1373 0.0795
vn -0.9299 -0.0970 0.3547
vn -0.9118 0.3540 -0.2082
vn -0.9488 0.2891 -0.1272
vn 0.9117 0.3540 -0.2086
vn 0.9488 0.2891 -0.1276
vn 0.9884 0.1298 0.0792
vn 0.9884 0.1297 0.0796
vn 0.9874 0.1373 0.0791
vn 0.9300 -0.0971 0.3544
vn 0.9587 -0.0395 0.2815
vn -0.9299 -0.1201 0.3476
vn -0.9586 -0.0579 0.2787
vn -0.9883 0.1242 0.0884
vn -0.9883 0.1243 0.0882
vn -0.9873 0.1318 0.0884
vn -0.9298 -0.1203 0.3479
vn -0.9118 0.3669 -0.1844
vn -0.9488 0.2968 -0.1078
vn 0.9117 0.3669 -0.1848
vn 0.9488 0.2967 -0.1083
vn 0.9884 0.1243 0.0877
vn 0.9884 0.1241 0.0880
vn 0.9874 0.1317 0.0879
vn 0.9116 0.3671 -0.1851
vn 0.9300 -0.1202 0.3473
vn 0.9588 -0.0579 0.2783
vn -0.9299 -0.1427 0.3390
vn -0.9586 -0.0760 0.2743
vn -0.9883 0.1180 0.0965
vn -0.9883 0.1182 0.0963
vn -0.9873 0.1257 0.0968
vn -0.9299 -0.1428 0.3391
vn -0.9118 0.3783 -0.1599
vn -0.9488 0.3032 -0.0881
vn 0.9118 0.3782 -0.1602
vn 0.9488 0.3032 -0.0885
vn 0.9883 0.1183 0.0958
vn 0.9884 0.1180 0.0959
vn 0.9874 0.1257 0.0964
vn 0.9117 0.3783 -0.1604
vn 0.9300 -0.1428 0.3386
vn 0.9588 -0.0761 0.2739
vn -0.9299 -0.1646 0.3289
vn -0.9586 -0.0939 0.2687
vn -0.9883 0.1114 0.1039
vn -0.9883 0.1117 0.1038
vn -0.9873 0.1191 0.1049
vn -0.9299 -0.1647 0.3289
vn -0.9118 0.3880 -0.1347
vn -0.9488 0.3084 -0.0680
vn 0.9117 0.3879 -0.1351
vn 0.9488 0.3084 -0.0684
vn 0.9884 0.1117 0.1033
vn 0.9884 0.1115 0.1035
vn 0.9874 0.1190 0.1044
vn 0.9116 0.3881 -0.1353
vn 0.9300 -0.1647 0.3285
vn 0.9588 -0.0939 0.2683
vn -0.9299 -0.1859 0.3173
vn -0.9586 -0.1113 0.2619
vn -0.9883 0.1043 0.1110
vn -0.9883 0.1047 0.1109
vn -0.9873 0.1119 0.1125
vn -0.9118 0.3960 -0.1088
vn -0.9488 0.3122 -0.0475
vn 0.9118 0.3959 -0.1093
vn 0.9488 0.3122 -0.0480
vn 0.9884 0.1047 0.1104
vn 0.9884 0.1043 0.1106
vn 0.9874 0.1119 0.1120
vn 0.9117 0.3960 -0.1093
vn 0.9300 -0.1860 0.3169
vn 0.9588 -0.1114 0.2615
vn -0.9300 -0.2063 0.3044
vn -0.9586 -0.1284 0.2541
vn -0.9883 0.0968 0.1177
vn -0.9883 0.0972 0.1176
vn -0.9873 0.1043 0.1196
vn -0.9299 -0.2064 0.3045
vn -0.9118 0.4023 -0.0826
vn -0.9488 0.3147 -0.0269
vn 0.9118 0.4023 -0.0830
vn 0.9488 0.3146 -0.0274
vn 0.9884 0.0971 0.1171
vn 0.9884 0.0968 0.1172
vn 0.9874 0.1043 0.1192
vn 0.9117 0.4024 -0.0830
vn 0.9300 -0.2065 0.3040
vn 0.9587 -0.1284 0.2536
vn -0.9299 -0.2259 0.2902
vn -0.9586 -0.1447 0.2451
vn -0.9883 0.0889 0.1238
vn -0.9883 0.0893 0.1237
vn -0.9873 0.0962 0.1262
vn -0.9299 -0.2260 0.2903
vn -0.9118 0.4069 -0.0560
vn -0.9488 0.3158 -0.0062
vn 0.9118 0.4068 -0.0563
vn 0.9488 0.3158 -0.0066
vn 0.9884 0.0892 0.1232
vn 0.9884 0.0890 0.1233
vn 0.9874 0.0962 0.1258
vn 0.9117 0.4070 -0.0564
vn 0.9300 -0.2260 0.2898
vn 0.9588 -0.1448 0.2446
vn -0.9299 -0.2444 0.2748
vn -0.9586 -0.1605 0.2350
vn -0.9883 0.0807 0.1294
vn -0.9883 0.0811 0.1292
vn -0.9873 0.0877 0.1323
vn -0.9299 -0.2445 0.2747
vn -0.9118 0.4097 -0.0291
vn -0.9488 0.3155 0.0146
vn 0.9118 0.4096 -0.0295
vn 0.9488 0.3155 0.0141
vn 0.9884 0.0809 0.1288
vn 0.9884 0.0806 0.1289
vn 0.9874 0.0877 0.1318
vn 0.9300 -0.2446 0.2743
vn 0.9588 -0.1605 0.2346
vn -0.9300 -0.2619 0.2579
vn -0.9586 -0.1756 0.2240
vn -0.9883 0.0721 0.1345
vn -0.9883 0.0723 0.1343
vn -0.9873 0.0788 0.1378
vn -0.9299 -0.2621 0.2580
vn -0.9118 0.4107 -0.0021
vn -0.9488 0.3139 0.0353
vn 0.9118 0.4107 -0.0025
vn 0.9488 0.3138 0.0349
vn 0.9884 0.0723 0.1338
vn 0.9884 0.0720 0.1339
vn 0.9874 0.0788 0.1373
vn 0.9117 0.4108 -0.0026
vn 0.9300 -0.2622 0.2576
vn 0.9587 -0.1756 0.2235
vn -0.9300 -0.2783 0.2402
vn -0.9586 -0.1899 0.2119
vn -0.9883 0.0630 0.1389
vn -0.9883 0.0633 0.1388
vn -0.9873 0.0696 0.1427
vn -0.9299 -0.2784 0.2403
vn -0.9118 0.4100 0.0249
vn -0.9488 0.3109 0.0559
vn 0.9119 0.4098 0.0245
vn 0.9488 0.3109 0.0554
vn 0.9884 0.0633 0.1383
vn 0.9884 0.0630 0.1384
vn 0.9874 0.0696 0.1422
vn 0.9118 0.4100 0.0245
vn 0.9300 -0.2785 0.2398
vn 0.9587 -0.1899 0.2115
vn -0.9300 -0.2935 0.2214
vn -0.9586 -0.2035 0.1990
vn -0.9883 0.0537 0.1427
vn -0.9883 0.0540 0.1427
vn -0.9873 0.0601 0.1469
vn -0.9299 -0.2938 0.2215
vn -0.9117 0.4075 0.0518
vn -0.9488 0.3066 0.0762
vn 0.9118 0.4074 0.0514
vn 0.9488 0.3065 0.0758
vn 0.9884 0.0540 0.1422
vn 0.9884 0.0538 0.1422
vn 0.9874 0.0601 0.1464
vn 0.9118 0.4075 0.0514
vn 0.9300 -0.2937 0.2210
vn 0.9587 -0.2034 0.1985
vn 0.9987 0.0429 0.0263
vn 0.9592 0.2405 0.1486
vn 0.9436 0.2815 0.1740
vn 0.9436 0.2816 0.1739
vn 0.9971 0.0650 0.0400
vn 0.9942 -0.0916 -0.0569
vn 0.9942 -0.0914 -0.0568
vn 0.9416 -0.2862 -0.1773
vn 0.9415 -0.2864 -0.1774
vn 0.7070 -0.6013 -0.3722
vn 0.2327 -0.8270 -0.5117
vn -0.2330 -0.8270 -0.5116
vn -0.7072 -0.6013 -0.3718
vn -0.9390 -0.2926 -0.1808
vn -0.9389 -0.2928 -0.1809
vn -0.9933 -0.0984 -0.0606
vn -0.9933 -0.0982 -0.0605
vn -0.9959 0.0763 0.0475
vn -0.9960 0.0763 0.0475
vn -0.9390 0.2923 0.1811
vn -0.9591 0.2405 0.1491
vn -0.9987 0.0429 0.0268
vn -0.8451 0.3128 0.4337
vn -0.8451 0.3404 0.4123
vn -0.8451 0.3667 0.3891
vn -0.8451 0.3913 0.3643
vn -0.8451 0.4143 0.3380
vn -0.8451 0.4355 0.3101
vn -0.8450 0.4456 0.2958
vn -0.8447 0.0541 0.5324
vn -0.8450 0.0888 0.5274
vn -0.8450 0.0888 0.5273
vn -0.8450 0.1231 0.5204
vn -0.8450 0.1568 0.5112
vn -0.8450 0.1899 0.4998
vn -0.8450 0.2222 0.4864
vn -0.8450 0.2535 0.4708
vn -0.8450 0.2837 0.4532
vn 0.8453 0.3127 0.4333
vn 0.8453 0.3404 0.4119
vn 0.8453 0.3667 0.3887
vn 0.8453 0.3913 0.3639
vn 0.8452 0.4143 0.3375
vn 0.8452 0.4355 0.3097
vn 0.8451 0.4456 0.2954
vn 0.8450 0.0543 0.5320
vn 0.8453 0.0887 0.5270
vn 0.8453 0.0887 0.5269
vn 0.8453 0.1231 0.5199
vn 0.8453 0.1568 0.5108
vn 0.8453 0.1899 0.4994
vn 0.8453 0.2222 0.4859
vn 0.8453 0.2535 0.4704
vn 0.8453 0.2837 0.4528
vn 0.9625 -0.2260 -0.1502
vn 1.0000 0.0003 -0.0003
vn 1.0000 -0.0000 -0.0003
vn 1.0000 -0.0001 -0.0003
vn -0.9800 -0.1164 -0.1611
vn -0.9800 -0.1267 -0.1532
vn -1.0000 0.0002 0.0001
vn -1.0000 -0.0001 0.0003
vn -0.9801 -0.0458 -0.1934
vn -0.9800 -0.0584 -0.1900
vn -0.9800 -0.0707 -0.1858
vn -0.9800 -0.0827 -0.1807
vn -0.9800 -0.0944 -0.1750
vn -0.9800 -0.1056 -0.1684
vn 0.0002 0.5851 0.8110
vn 0.0002 0.6369 0.7709
vn 0.0002 0.6860 0.7276
vn 0.0002 0.7321 0.6812
vn 0.0002 0.7751 0.6319
vn 0.0001 0.8147 0.5798
vn 0.0001 0.8333 0.5529
vn 0.0002 0.0686 0.9976
vn 0.0002 0.1012 0.9949
vn 0.0002 0.1661 0.9861
vn 0.0002 0.2302 0.9731
vn 0.0002 0.2934 0.9560
vn 0.0002 0.3553 0.9348
vn 0.0002 0.4157 0.9095
vn 0.0002 0.4743 0.8804
vn 0.0002 0.5308 0.8475
vt 0.163282 1.036494
vt 0.155849 1.045188
vt 0.159935 1.039744
vt 0.180419 1.071440
vt 0.163324 1.075961
vt 0.150286 1.063218
vt 0.185834 1.067649
vt 0.223211 1.023385
vt 0.200673 1.004321
vt 0.198474 1.005542
vt 0.206445 1.004854
vt 0.222003 1.020412
vt 0.203472 1.003646
vt 0.221183 1.028513
vt 0.189643 1.064058
vt 0.222536 1.026184
vt 0.162186 0.076397
vt 0.163831 0.068911
vt 0.174522 0.061408
vt 0.180165 0.072020
vt 0.154870 0.046241
vt 0.165368 0.052096
vt 0.157643 0.062634
vt 0.150131 0.064119
vt 0.180280 0.072331
vt 0.163943 0.076793
vt 0.150684 0.065770
vt 0.160546 0.075814
vt 0.154554 0.046122
vt 0.149768 0.062362
vt 0.179980 0.058868
vt 0.187543 0.067399
vt 0.187844 0.067750
vt 0.222660 0.028497
vt 0.221758 0.030647
vt 0.223861 0.026023
vt 0.223697 0.023366
vt 0.223796 0.023116
vt 0.222336 0.019039
vt 0.222283 0.019112
vt 0.208457 0.005062
vt 0.208530 0.005008
vt 0.204221 0.003577
vt 0.204477 0.003482
vt 0.201572 0.003367
vt 0.199086 0.004526
vt 0.196932 0.005382
vt 0.159606 0.038958
vt 0.159259 0.038649
vt 0.213394 0.024593
vt 0.213483 0.024878
vt 0.168001 0.046673
vt 0.202864 0.013861
vt 0.202626 0.013772
vt 0.213487 0.024823
vt 0.202585 0.013770
vt 0.355223 0.080010
vt 0.355223 0.081876
vt 0.316263 0.081876
vt 0.316263 0.080010
vt 0.355223 0.077087
vt 0.316263 0.077087
vt 0.452524 0.082726
vt 0.443721 0.121685
vt 0.404761 0.121685
vt 0.395958 0.082726
vt 0.394182 0.081876
vt 0.402985 0.120835
vt 0.346419 0.120835
vt 0.394182 0.080010
vt 0.394182 0.077087
vt 1.452524 0.082726
vt 1.443721 0.121685
vt 1.404761 0.121685
vt 1.395958 0.082726
vt 1.394182 0.081876
vt 1.402985 0.120835
vt 1.346419 0.120835
vt 1.355223 0.081876
vt 1.394182 0.080010
vt 1.355223 0.080010
vt 1.394182 0.077087
vt 1.355223 0.077087
vt 0.382894 -1.660053
vt 0.382894 -1.410053
vt 0.132894 -1.410053
vt 0.132894 -1.660053
vt 0.382894 -1.794455
vt 0.132894 -1.794455
vt 0.382894 -1.910053
vt 0.132894 -1.910053
vt 0.382894 -2.160053
vt 0.132894 -2.160053
vt 0.132894 -2.275651
vt 0.132894 -2.410053
vt 0.382894 -2.410053
vt -0.117106 -2.410053
vt -0.117106 -2.275651
vt -0.117106 -2.160053
vt 0.382894 -2.275651
vt 0.632894 -2.160053
vt 0.632894 -2.275651
vt 0.632894 -2.410053
vt 0.398096 0.289834
vt 0.396185 0.296082
vt 0.394241 0.292286
vt 0.400490 0.294510
vt 0.396867 0.298665
vt 0.400489 0.329643
vt 0.396867 0.325488
vt 0.396185 0.328071
vt 0.398096 0.334318
vt 0.394241 0.331867
vt 0.393386 0.336711
vt 0.390072 0.333089
vt 0.388831 0.337813
vt 0.297583 0.333089
vt 0.296547 0.337713
vt 0.291438 0.333089
vt 0.290497 0.336603
vt 0.279575 0.330305
vt 0.280515 0.326791
vt 0.249769 0.325713
vt 0.247314 0.328708
vt 0.247313 0.295445
vt 0.249769 0.298440
vt 0.279575 0.293847
vt 0.280515 0.297362
vt 0.291438 0.291064
vt 0.290497 0.287550
vt 0.297665 0.286439
vt 0.298699 0.291064
vt 0.388475 0.286340
vt 0.389716 0.291064
vt 0.393386 0.287441
vt 0.239180 0.328742
vt 0.239179 0.295411
vt 0.005828 0.440223
vt 0.036263 0.440223
vt 0.036263 0.462018
vt 0.005828 0.462018
vt 0.003139 0.461134
vt 0.038953 0.415950
vt 0.038953 0.439385
vt 0.038953 0.461134
vt 0.041541 0.437363
vt 0.041541 0.414048
vt 0.041541 0.389155
vt 0.000367 0.414048
vt 0.000367 0.389155
vt 0.003139 0.390928
vt 0.003139 0.415950
vt 0.000367 0.437363
vt 0.003139 0.439385
vt 0.000367 0.459000
vt 0.000367 0.478866
vt 0.004199 0.481886
vt 0.006719 0.483321
vt 0.009240 0.483985
vt 0.032110 0.483985
vt 0.035001 0.483321
vt 0.037892 0.481886
vt 0.041541 0.459000
vt 0.041541 0.478866
vt 0.005828 0.416738
vt 0.005828 0.391663
vt 0.005828 0.365106
vt 0.003139 0.364427
vt 0.005828 0.337180
vt 0.003139 0.336561
vt 0.005828 0.308005
vt 0.003139 0.307448
vt 0.005828 0.277706
vt 0.003139 0.277214
vt 0.005828 0.246413
vt 0.003139 0.245987
vt 0.005828 0.214260
vt 0.003139 0.213902
vt 0.005828 0.181384
vt 0.003139 0.181095
vt 0.005828 0.147926
vt 0.036263 0.391663
vt 0.036263 0.365106
vt 0.036263 0.337180
vt 0.036263 0.308005
vt 0.036263 0.277706
vt 0.036263 0.246413
vt 0.036263 0.214260
vt 0.036263 0.181384
vt 0.036263 0.147926
vt 0.005828 0.114029
vt 0.036263 0.114029
vt 0.003139 0.147708
vt 0.003139 0.113884
vt 0.005828 0.079839
vt 0.036263 0.079839
vt 0.038953 0.079766
vt 0.038953 0.113884
vt 0.038953 0.147708
vt 0.038953 0.181095
vt 0.038953 0.213902
vt 0.038953 0.245987
vt 0.038953 0.277214
vt 0.041541 0.213037
vt 0.041541 0.180399
vt 0.041541 0.147184
vt 0.041541 0.113532
vt 0.041541 0.079590
vt 0.041541 0.045502
vt 0.038953 0.045502
vt 0.036263 0.045502
vt 0.005828 0.045502
vt 0.003139 0.079766
vt 0.000367 0.113532
vt 0.003139 0.045502
vt 0.000367 0.079590
vt 0.000367 0.045502
vt 0.036263 0.416738
vt 0.038953 0.390928
vt 0.041541 0.362790
vt 0.038953 0.364427
vt 0.041541 0.335067
vt 0.038953 0.336561
vt 0.041541 0.306103
vt 0.038953 0.307448
vt 0.041541 0.276024
vt 0.041541 0.244958
vt 0.433141 0.081876
vt 0.433141 0.080010
vt 0.433141 0.077087
vt 1.316263 0.077087
vt 1.316263 0.080010
vt 1.316263 0.081876
vt 1.433141 0.081876
vt 1.433141 0.080010
vt 1.433141 0.077087
vt 0.246922 0.292301
vt 0.246913 0.284166
vt 0.279306 0.284132
vt 0.279315 0.292267
vt 0.290273 0.278312
vt 0.290282 0.286446
vt 0.297665 0.278304
vt 0.388475 0.278205
vt 0.393583 0.278216
vt 0.393592 0.286351
vt 0.398313 0.278211
vt 0.398322 0.286346
vt 0.400486 0.289744
vt 0.408621 0.289744
vt 0.408625 0.294474
vt 0.408624 0.329679
vt 0.408620 0.334410
vt 0.400485 0.334409
vt 1.398323 0.286341
vt 1.398315 0.278206
vt 1.393584 0.278211
vt 1.393593 0.286346
vt 1.388475 0.286334
vt 1.388475 0.278199
vt 1.297665 0.286434
vt 1.297665 0.278300
vt 1.290275 0.278306
vt 1.290283 0.286441
vt 1.279308 0.284181
vt 1.279316 0.292315
vt 1.246915 0.284215
vt 1.246923 0.292349
vt 0.233556 0.249190
vt 0.225336 0.243697
vt 0.241801 0.220719
vt 0.249646 0.226738
vt 0.259735 0.198867
vt 0.267169 0.205386
vt 0.279059 0.178235
vt 0.286051 0.185226
vt 0.299692 0.158910
vt 0.306211 0.166344
vt 0.321544 0.140977
vt 0.327563 0.148821
vt 0.344522 0.124511
vt 0.350015 0.132732
vt 0.162419 0.483700
vt 0.152532 0.483700
vt 0.153457 0.455446
vt 0.163323 0.456093
vt 0.156227 0.427314
vt 0.166030 0.428604
vt 0.160832 0.399422
vt 0.170529 0.401351
vt 0.167251 0.371892
vt 0.176802 0.374451
vt 0.175457 0.344840
vt 0.184820 0.348018
vt 0.185415 0.318383
vt 0.194550 0.322167
vt 0.197082 0.292634
vt 0.205949 0.297007
vt 0.210408 0.267703
vt 0.218970 0.272647
vt 1.225342 0.243697
vt 1.233563 0.249190
vt 1.249652 0.226738
vt 1.241808 0.220719
vt 1.267175 0.205386
vt 1.259741 0.198867
vt 1.286057 0.185226
vt 1.279066 0.178235
vt 1.306217 0.166344
vt 1.299698 0.158910
vt 1.327569 0.148821
vt 1.321550 0.140977
vt 1.350021 0.132732
vt 1.344528 0.124511
vt 1.152538 0.483700
vt 1.162425 0.483700
vt 1.163329 0.456093
vt 1.153463 0.455446
vt 1.166036 0.428604
vt 1.156234 0.427314
vt 1.170536 0.401351
vt 1.160838 0.399422
vt 1.176808 0.374451
vt 1.167258 0.371892
vt 1.184826 0.348018
vt 1.175464 0.344840
vt 1.194556 0.322167
vt 1.185421 0.318383
vt 1.205956 0.297007
vt 1.197088 0.292634
vt 1.218976 0.272647
vt 1.210414 0.267703
vt 0.257129 0.264941
vt 0.272138 0.243997
vt 0.288484 0.224079
vt 0.306098 0.205273
vt 0.324904 0.187659
vt 0.344822 0.171313
vt 0.365766 0.156305
vt 0.190770 0.483700
vt 0.191613 0.457947
vt 0.194138 0.432305
vt 0.198336 0.406882
vt 0.204187 0.381789
vt 0.211666 0.357132
vt 0.220743 0.333016
vt 0.231377 0.309547
vt 0.243523 0.286822
vt 1.257136 0.264941
vt 1.272144 0.243997
vt 1.288490 0.224079
vt 1.306104 0.205273
vt 1.324910 0.187659
vt 1.344828 0.171313
vt 1.365772 0.156305
vt 1.190776 0.483700
vt 1.191619 0.457947
vt 1.194145 0.432305
vt 1.198342 0.406882
vt 1.204193 0.381789
vt 1.211672 0.357132
vt 1.220749 0.333016
vt 1.231383 0.309547
vt 1.243529 0.286822
vt 1.151167 0.194135
vt 1.171033 0.166412
vt 1.192670 0.140047
vt 1.215985 0.115154
vt 1.240878 0.091839
vt 1.267243 0.070202
vt 1.294966 0.050336
vt 1.063328 0.483700
vt 1.064444 0.449612
vt 1.067787 0.415669
vt 1.073343 0.382018
vt 1.081088 0.348803
vt 1.090989 0.316165
vt 1.103002 0.284244
vt 1.117079 0.253178
vt 1.133156 0.223099
vt 0.151161 0.194135
vt 0.171027 0.166412
vt 0.192664 0.140047
vt 0.215979 0.115154
vt 0.240872 0.091839
vt 0.267237 0.070202
vt 0.294960 0.050336
vt 0.063322 0.483700
vt 0.064438 0.449612
vt 0.067781 0.415669
vt 0.073337 0.382018
vt 0.081082 0.348803
vt 0.090982 0.316165
vt 0.102996 0.284244
vt 0.117072 0.253178
vt 0.133150 0.223099
vt 0.037701 1.192383
vt 0.003835 1.192383
vt 0.003835 1.164905
vt 0.037701 1.164905
vt 0.003835 1.138773
vt 0.037701 1.138773
vt 0.003835 1.114101
vt 0.037701 1.114101
vt 0.003835 1.090992
vt 0.037701 1.090992
vt 0.003835 1.069547
vt 0.037701 1.069547
vt 0.003835 1.049856
vt 0.037701 1.049856
vt 0.037701 1.479383
vt 0.003835 1.479383
vt 0.003835 1.445597
vt 0.037701 1.445597
vt 0.003835 1.411955
vt 0.037701 1.411955
vt 0.003835 1.378602
vt 0.037701 1.378602
vt 0.003835 1.345681
vt 0.037701 1.345681
vt 0.003835 1.313332
vt 0.037701 1.313332
vt 0.003835 1.281694
vt 0.037701 1.281694
vt 0.003835 1.250902
vt 0.037701 1.250902
vt 0.003835 1.221090
vt 0.037701 1.221090
vt 0.000367 0.147184
vt 0.000367 0.180399
vt 0.000367 0.213037
vt 0.000367 0.244958
vt 0.000367 0.276024
vt 0.000367 0.306103
vt 0.000367 0.335067
vt 0.000367 0.362790
s 1
usemtl ak47.005
f 1/1/1 2/2/2 3/3/3
f 4/4/4 5/5/5 6/6/4
f 7/7/6 4/4/4 6/6/4
f 8/8/7 7/7/6 6/6/4
f 8/8/7 6/6/4 2/2/2
f 9/9/8 8/8/7 2/2/2
f 1/1/1 9/9/8 2/2/2
f 1/1/1 10/10/9 9/9/8
f 11/11/5 12/12/10 8/8/7
f 9/9/8 11/11/5 8/8/7
f 9/9/8 13/13/4 11/11/5
f 14/14/11 15/15/12 7/7/6
f 8/8/7 14/14/11 7/7/6
f 8/8/7 16/16/13 14/14/11
f 17/17/14 18/18/14 19/19/14
f 19/19/14 20/20/14 17/17/14
f 21/21/15 22/22/15 23/23/15
f 23/23/15 24/24/15 21/21/15
f 24/24/16 23/23/16 18/18/16
f 18/18/16 17/17/16 24/24/16
f 25/25/17 26/26/17 17/17/17
f 17/17/17 20/20/17 25/25/17
f 27/27/17 24/24/17 17/17/17
f 17/17/17 26/28/17 27/27/17
f 28/29/17 21/21/17 24/24/17
f 24/24/17 27/30/17 28/29/17
f 20/20/18 19/19/19 29/31/19
f 29/31/19 30/32/20 20/20/18
f 25/25/21 20/20/18 30/32/20
f 30/32/20 31/33/22 25/25/21
f 31/33/17 30/32/17 32/34/17
f 32/34/17 33/35/17 31/33/17
f 33/36/17 32/34/17 34/37/17
f 34/37/17 35/38/17 33/36/17
f 36/39/17 35/38/17 34/37/17
f 34/37/17 37/40/17 36/39/17
f 36/39/17 37/40/17 38/41/17
f 38/41/17 39/42/17 36/39/17
f 39/42/17 38/41/17 40/43/17
f 40/43/17 41/44/17 39/42/17
f 42/45/17 41/44/17 40/43/17
f 40/43/17 43/46/17 42/45/17
f 42/47/17 43/46/17 44/48/17
f 44/48/17 45/49/17 42/47/17
f 30/32/14 29/31/14 46/50/23
f 46/50/23 32/34/23 30/32/14
f 32/34/23 46/50/23 47/51/24
f 47/51/24 34/37/24 32/34/23
f 29/31/17 23/23/17 22/22/17
f 29/31/17 19/19/25 23/23/17
f 19/19/25 18/18/17 23/23/17
f 22/22/17 48/52/17 49/53/17
f 22/22/17 49/53/17 50/54/17
f 29/31/17 22/22/17 50/54/17
f 47/51/17 29/31/17 50/54/17
f 47/51/17 46/50/17 29/31/17
f 47/51/17 50/54/17 51/55/26
f 49/53/17 52/56/17 50/54/17
f 53/57/27 54/58/28 55/59/29
f 55/59/29 56/60/30 53/57/27
f 57/61/31 53/57/27 56/60/30
f 56/60/30 58/62/32 57/61/31
f 59/63/33 60/64/33 57/65/33
f 57/65/34 58/66/34 59/63/34
f 61/67/35 62/68/35 55/69/35
f 55/69/35 54/58/35 61/67/35
f 63/70/36 61/67/37 54/58/37
f 54/58/37 53/57/38 63/70/36
f 60/71/38 63/70/36 53/57/38
f 53/57/38 57/61/38 60/71/38
f 64/72/39 65/73/39 66/74/39
f 66/74/39 67/75/39 64/72/39
f 68/76/40 69/77/40 70/78/40
f 70/78/40 71/79/40 68/76/40
f 72/80/41 68/76/42 71/79/43
f 71/79/43 73/81/41 72/80/41
f 65/82/41 72/80/41 73/81/41
f 73/81/41 66/83/41 65/82/41
f 74/72/44 75/73/44 76/74/44
f 76/74/44 77/75/44 74/72/44
f 78/76/45 79/77/45 80/78/45
f 80/78/45 81/79/45 78/76/45
f 82/80/46 78/76/47 81/79/48
f 81/79/48 83/81/46 82/80/46
f 75/82/46 82/80/46 83/81/46
f 83/81/46 76/83/49 75/82/46
f 84/72/50 85/73/50 86/74/50
f 86/74/50 87/75/50 84/72/50
f 88/76/51 89/77/51 90/78/51
f 90/78/51 91/79/51 88/76/51
f 92/80/52 88/76/53 91/79/54
f 91/79/54 93/81/52 92/80/52
f 85/82/55 92/80/52 93/81/52
f 93/81/52 86/83/55 85/82/55
f 94/72/56 95/73/56 96/74/56
f 96/74/56 97/75/56 94/72/56
f 98/76/57 99/77/57 100/78/57
f 100/78/57 101/79/57 98/76/57
f 102/80/58 98/76/58 101/79/58
f 101/79/58 103/81/58 102/80/58
f 95/82/59 102/80/58 103/81/58
f 103/81/58 96/83/59 95/82/59
f 104/72/60 105/73/60 106/74/60
f 106/74/60 107/75/60 104/72/60
f 108/76/61 109/77/61 110/78/61
f 110/78/61 111/79/61 108/76/61
f 112/80/62 108/76/62 111/79/62
f 111/79/62 113/81/62 112/80/62
f 105/82/62 112/80/62 113/81/62
f 113/81/62 106/83/62 105/82/62
f 114/72/63 115/73/63 116/74/63
f 116/74/63 117/75/63 114/72/63
f 118/76/64 119/77/64 120/78/64
f 120/78/64 121/79/64 118/76/64
f 122/80/65 118/76/66 121/79/65
f 121/79/65 123/81/65 122/80/65
f 115/82/67 122/80/65 123/81/65
f 123/81/65 116/83/67 115/82/67
f 124/72/68 125/73/68 126/74/68
f 126/74/68 127/75/68 124/72/68
f 128/76/69 129/77/69 130/78/69
f 130/78/69 131/79/69 128/76/69
f 132/80/70 128/76/71 131/79/70
f 131/79/70 133/81/70 132/80/70
f 125/82/70 132/80/70 133/81/70
f 133/81/70 126/83/70 125/82/70
f 134/72/72 135/73/72 136/74/72
f 136/74/72 137/75/72 134/72/72
f 138/76/73 139/77/73 140/78/73
f 140/78/73 141/79/73 138/76/73
f 142/80/74 138/76/75 141/79/75
f 141/79/75 143/81/74 142/80/74
f 135/82/74 142/80/74 143/81/74
f 143/81/74 136/83/74 135/82/74
f 144/72/76 145/73/76 146/74/76
f 146/74/76 147/75/76 144/72/76
f 148/76/77 149/77/77 150/78/77
f 150/78/77 151/79/77 148/76/77
f 152/80/78 148/76/79 151/79/79
f 151/79/79 153/81/78 152/80/78
f 145/82/80 152/80/78 153/81/78
f 153/81/78 146/83/80 145/82/80
f 154/72/81 155/73/81 156/74/81
f 156/74/81 157/75/81 154/72/81
f 158/76/82 159/77/82 160/78/82
f 160/78/82 161/79/82 158/76/82
f 162/80/83 158/76/84 161/79/84
f 161/79/84 163/81/83 162/80/83
f 155/82/83 162/80/83 163/81/83
f 163/81/83 156/83/83 155/82/83
f 164/72/85 165/73/85 166/74/85
f 166/74/85 167/75/85 164/72/85
f 168/76/86 169/77/86 170/78/86
f 170/78/86 171/79/86 168/76/86
f 172/80/87 168/76/88 171/79/88
f 171/79/88 173/81/88 172/80/87
f 165/82/87 172/80/87 173/81/88
f 173/81/88 166/83/87 165/82/87
f 174/84/89 175/85/89 176/86/89
f 176/86/89 177/87/89 174/84/89
f 178/88/90 174/84/91 177/87/92
f 177/87/92 179/89/93 178/88/90
f 180/90/94 178/88/90 179/89/93
f 179/89/93 181/91/95 180/90/94
f 182/92/96 180/90/96 181/91/96
f 181/91/96 183/93/96 182/92/96
f 184/94/97 176/95/98 175/96/99
f 177/97/92 176/95/98 184/94/97
f 184/94/97 179/98/93 177/97/92
f 181/99/95 179/98/93 184/94/97
f 184/94/97 183/93/100 181/99/95
f 183/93/100 184/94/97 185/100/101
f 185/100/101 182/92/102 183/93/100
f 180/101/94 182/92/102 185/100/101
f 185/100/101 178/102/90 180/101/94
f 174/103/91 178/102/90 185/100/101
f 185/100/101 175/96/99 174/103/91
f 175/96/99 185/100/101 184/94/97
f 186/84/103 187/85/103 188/86/103
f 188/86/103 189/87/103 186/84/103
f 190/88/104 186/84/105 189/87/106
f 189/87/106 191/89/107 190/88/104
f 192/90/108 190/88/104 191/89/107
f 191/89/107 193/91/109 192/90/108
f 194/92/110 192/90/110 193/91/110
f 193/91/110 195/93/110 194/92/110
f 187/96/111 196/100/112 197/94/113
f 196/100/112 187/96/111 186/103/105
f 186/103/105 190/102/104 196/100/112
f 197/94/113 188/95/114 187/96/111
f 188/95/114 197/94/113 191/98/107
f 193/99/109 191/98/107 197/94/113
f 197/94/113 195/93/115 193/99/109
f 195/93/115 197/94/113 196/100/112
f 196/100/112 194/92/116 195/93/115
f 194/92/116 196/100/112 190/102/104
f 190/102/104 192/101/108 194/92/116
f 191/98/107 189/97/106 188/95/114
f 198/104/117 199/105/118 200/106/119
f 199/105/118 198/104/117 201/107/120
f 201/107/120 202/108/121 199/105/118
f 202/108/121 201/107/120 203/109/122
f 203/109/122 204/110/121 202/108/121
f 205/111/123 204/110/121 203/109/122
f 203/109/122 206/112/124 205/111/123
f 207/113/125 205/111/123 206/112/124
f 206/112/124 208/114/126 207/113/125
f 209/115/127 207/113/125 208/114/126
f 208/114/126 210/116/128 209/115/127
f 211/117/129 209/115/130 210/116/131
f 210/116/131 212/118/129 211/117/129
f 213/119/132 211/117/129 212/118/129
f 212/118/129 214/120/129 213/119/132
f 213/119/132 214/120/129 215/121/133
f 215/121/133 216/122/134 213/119/132
f 217/123/135 216/122/134 215/121/133
f 215/121/133 218/124/136 217/123/135
f 217/123/135 218/124/136 219/125/137
f 219/125/137 220/126/138 217/123/135
f 220/126/138 219/125/137 221/127/139
f 221/127/139 222/128/140 220/126/138
f 223/129/141 222/128/142 221/127/143
f 221/127/143 224/130/129 223/129/141
f 223/129/141 224/130/129 225/131/129
f 225/131/129 226/132/129 223/129/141
f 226/132/129 225/131/129 227/133/144
f 227/133/144 228/134/145 226/132/129
f 228/134/145 227/133/144 229/135/146
f 229/135/146 200/106/119 228/134/145
f 200/106/119 229/135/146 198/104/117
f 218/124/147 6/136/147 5/137/147
f 5/137/147 219/125/147 218/124/147
f 230/138/148 231/139/149 232/140/150
f 232/140/150 233/141/151 230/138/148
f 230/138/148 233/141/151 234/142/152
f 235/143/153 236/144/154 231/139/149
f 232/140/150 231/139/149 236/144/154
f 236/144/154 237/145/155 232/140/150
f 237/145/155 236/144/154 238/146/156
f 239/147/157 238/146/156 236/144/154
f 236/144/154 235/143/153 239/147/157
f 240/148/158 239/147/157 235/143/153
f 241/149/159 242/150/160 243/151/161
f 243/151/161 244/152/162 241/149/159
f 245/153/163 241/149/159 244/152/162
f 244/152/162 246/154/164 245/153/163
f 247/155/165 245/153/163 246/154/164
f 246/154/164 234/142/152 247/155/165
f 209/156/166 247/155/165 234/142/152
f 234/142/152 207/157/167 209/156/166
f 207/157/167 234/142/152 233/141/151
f 233/141/151 205/158/168 207/157/167
f 205/158/168 233/141/151 204/159/169
f 202/160/170 204/159/169 233/141/151
f 233/141/151 232/140/150 202/160/170
f 232/140/150 199/161/171 202/160/170
f 200/162/172 199/161/171 232/140/150
f 232/140/150 237/145/155 200/162/172
f 200/162/172 237/145/155 248/163/173
f 238/146/156 248/163/173 237/145/155
f 248/163/173 228/164/174 200/162/172
f 246/154/164 244/152/162 249/165/175
f 250/166/176 249/165/175 244/152/162
f 244/152/162 243/151/161 250/166/176
f 251/167/177 250/166/176 243/151/161
f 243/151/161 252/168/178 251/167/177
f 253/169/179 251/167/177 252/168/178
f 252/168/178 254/170/180 253/169/179
f 255/171/181 253/169/179 254/170/180
f 254/170/180 256/172/182 255/171/181
f 257/173/183 255/171/181 256/172/182
f 256/172/182 258/174/184 257/173/183
f 259/175/185 257/173/183 258/174/184
f 258/174/184 260/176/186 259/175/185
f 261/177/187 259/175/185 260/176/186
f 260/176/186 262/178/188 261/177/187
f 263/179/189 261/177/187 262/178/188
f 262/178/188 264/180/190 263/179/189
f 265/181/191 263/179/189 264/180/190
f 266/182/192 250/166/176 251/167/177
f 251/167/177 267/183/193 266/182/192
f 267/183/193 251/167/177 253/169/179
f 253/169/179 268/184/194 267/183/193
f 268/184/194 253/169/179 255/171/181
f 255/171/181 269/185/195 268/184/194
f 269/185/195 255/171/181 257/173/183
f 257/173/183 270/186/196 269/185/195
f 270/186/196 257/173/183 259/175/185
f 259/175/185 271/187/197 270/186/196
f 271/187/197 259/175/185 261/177/187
f 261/177/187 272/188/198 271/187/197
f 272/188/198 261/177/187 263/179/189
f 263/179/189 273/189/199 272/188/198
f 273/189/199 263/179/189 265/181/191
f 265/181/191 274/190/200 273/189/199
f 274/190/200 265/181/191 275/191/201
f 275/191/201 276/192/202 274/190/200
f 264/180/190 277/193/203 265/181/191
f 275/191/201 265/181/191 277/193/203
f 277/193/203 278/194/204 275/191/201
f 279/195/205 275/191/201 278/194/204
f 276/192/202 275/191/201 279/195/205
f 279/195/205 280/196/206 276/192/202
f 276/192/202 280/196/206 281/197/207
f 281/197/207 282/198/208 276/192/202
f 274/190/200 276/192/202 282/198/208
f 282/198/208 283/199/209 274/190/200
f 273/189/199 274/190/200 283/199/209
f 283/199/209 284/200/210 273/189/199
f 272/188/198 273/189/199 284/200/210
f 284/200/210 285/201/211 272/188/198
f 271/187/197 272/188/198 285/201/211
f 285/201/211 286/202/212 271/187/197
f 270/186/196 271/187/197 286/202/212
f 286/202/212 287/203/213 270/186/196
f 286/202/212 285/201/211 288/204/214
f 289/205/215 288/204/214 285/201/211
f 285/201/211 284/200/210 289/205/215
f 290/206/216 289/205/215 284/200/210
f 284/200/210 283/199/209 290/206/216
f 291/207/217 290/206/216 283/199/209
f 283/199/209 282/198/208 291/207/217
f 292/208/218 291/207/217 282/198/208
f 282/198/208 281/197/207 292/208/218
f 42/209/219 292/208/218 281/197/207
f 281/197/207 41/210/220 42/209/219
f 41/210/220 281/197/207 280/196/206
f 280/196/206 39/211/221 41/210/220
f 36/212/222 39/211/221 280/196/206
f 280/196/206 279/195/205 36/212/222
f 36/212/222 279/195/205 293/213/223
f 278/194/204 293/213/223 279/195/205
f 293/213/223 278/194/204 294/214/224
f 293/213/223 35/215/225 36/212/222
f 35/215/225 293/213/223 295/216/226
f 294/214/224 295/216/226 293/213/223
f 295/216/226 33/217/227 35/215/225
f 234/142/152 246/154/164 230/138/148
f 249/165/175 230/138/148 246/154/164
f 231/139/149 230/138/148 249/165/175
f 249/165/175 296/218/228 231/139/149
f 231/139/149 296/218/228 235/143/153
f 297/219/229 235/143/153 296/218/228
f 235/143/153 297/219/229 240/148/158
f 298/220/230 240/148/158 297/219/229
f 297/219/229 299/221/231 298/220/230
f 300/222/232 298/220/230 299/221/231
f 299/221/231 301/223/233 300/222/232
f 302/224/234 300/222/232 301/223/233
f 301/223/233 303/225/235 302/224/234
f 304/226/236 302/224/234 303/225/235
f 303/225/235 287/203/213 304/226/236
f 305/227/237 304/226/236 287/203/213
f 287/203/213 286/202/212 305/227/237
f 288/204/214 305/227/237 286/202/212
f 269/185/195 270/186/196 287/203/213
f 287/203/213 303/225/235 269/185/195
f 268/184/194 269/185/195 303/225/235
f 303/225/235 301/223/233 268/184/194
f 267/183/193 268/184/194 301/223/233
f 301/223/233 299/221/231 267/183/193
f 266/182/192 267/183/193 299/221/231
f 299/221/231 297/219/229 266/182/192
f 296/218/228 266/182/192 297/219/229
f 250/166/176 266/182/192 296/218/228
f 296/218/228 249/165/175 250/166/176
f 34/37/238 47/51/238 51/55/239
f 51/55/239 37/40/239 34/37/238
f 37/40/239 51/55/239 50/54/240
f 50/54/240 38/41/240 37/40/239
f 38/41/240 50/54/240 52/56/241
f 52/56/241 40/43/241 38/41/240
f 40/43/242 52/56/243 49/53/244
f 49/53/244 43/46/244 40/43/242
f 43/46/244 49/53/244 48/52/15
f 48/52/15 44/48/15 43/46/244
f 28/29/245 45/49/246 44/48/247
f 44/48/247 21/21/248 28/29/245
f 22/22/249 21/21/248 44/48/247
f 44/48/247 48/52/249 22/22/249
f 62/228/250 61/67/251 63/70/252
f 63/70/253 306/229/254 62/228/255
f 59/230/256 306/229/254 63/70/253
f 63/70/253 60/71/257 59/230/256
f 67/231/258 66/83/259 73/81/260
f 73/81/261 307/232/262 67/231/263
f 70/233/264 307/232/262 73/81/261
f 73/81/261 71/79/265 70/233/264
f 69/234/266 68/76/267 72/80/268
f 72/80/269 308/235/270 69/234/266
f 64/236/271 308/235/270 72/80/269
f 72/80/269 65/82/272 64/236/271
f 77/231/273 76/83/274 83/81/275
f 83/81/276 309/232/277 77/231/278
f 80/233/279 309/232/277 83/81/276
f 83/81/276 81/79/280 80/233/279
f 79/234/281 78/76/282 82/80/283
f 82/80/284 310/235/285 79/234/286
f 74/236/287 310/235/285 82/80/284
f 82/80/284 75/82/288 74/236/287
f 87/231/289 86/83/290 93/81/291
f 93/81/292 311/232/293 87/231/294
f 90/233/295 311/232/293 93/81/292
f 93/81/292 91/79/296 90/233/295
f 89/234/297 88/76/298 92/80/299
f 92/80/300 312/235/301 89/234/302
f 84/236/303 312/235/301 92/80/300
f 92/80/300 85/82/304 84/236/303
f 97/231/305 96/83/306 103/81/307
f 103/81/308 313/232/309 97/231/310
f 100/233/311 313/232/309 103/81/308
f 103/81/308 101/79/312 100/233/311
f 99/234/313 98/76/314 102/80/315
f 102/80/316 314/235/317 99/234/318
f 94/236/319 314/235/317 102/80/316
f 102/80/316 95/82/320 94/236/319
f 107/231/321 106/83/322 113/81/323
f 113/81/324 315/232/325 107/231/321
f 110/233/326 315/232/325 113/81/324
f 113/81/324 111/79/327 110/233/326
f 109/234/328 108/76/329 112/80/330
f 112/80/331 316/235/332 109/234/333
f 104/236/334 316/235/332 112/80/331
f 112/80/331 105/82/335 104/236/334
f 117/231/336 116/83/337 123/81/338
f 123/81/339 317/232/340 117/231/341
f 120/233/342 317/232/340 123/81/339
f 123/81/339 121/79/343 120/233/342
f 119/234/344 118/76/345 122/80/346
f 122/80/347 318/235/348 119/234/349
f 114/236/350 318/235/348 122/80/347
f 122/80/347 115/82/351 114/236/350
f 127/231/352 126/83/353 133/81/354
f 133/81/355 319/232/356 127/231/357
f 130/233/358 319/232/356 133/81/355
f 133/81/355 131/79/359 130/233/358
f 129/234/360 128/76/361 132/80/362
f 132/80/363 320/235/364 129/234/365
f 124/236/366 320/235/364 132/80/363
f 132/80/363 125/82/367 124/236/366
f 137/231/368 136/83/369 143/81/370
f 143/81/371 321/232/372 137/231/373
f 140/233/374 321/232/372 143/81/371
f 143/81/371 141/79/375 140/233/374
f 139/234/376 138/76/377 142/80/378
f 142/80/379 322/235/380 139/234/376
f 134/236/381 322/235/380 142/80/379
f 142/80/379 135/82/382 134/236/381
f 147/231/383 146/83/384 153/81/385
f 153/81/386 323/232/387 147/231/388
f 150/233/389 323/232/387 153/81/386
f 153/81/386 151/79/390 150/233/389
f 149/234/391 148/76/392 152/80/393
f 152/80/394 324/235/395 149/234/396
f 144/236/397 324/235/395 152/80/394
f 152/80/394 145/82/398 144/236/397
f 157/231/399 156/83/400 163/81/401
f 163/81/402 325/232/403 157/231/404
f 160/233/405 325/232/403 163/81/402
f 163/81/402 161/79/406 160/233/405
f 159/234/407 158/76/408 162/80/409
f 162/80/410 326/235/411 159/234/412
f 154/236/413 326/235/411 162/80/410
f 162/80/410 155/82/414 154/236/413
f 167/231/415 166/83/416 173/81/417
f 173/81/418 327/232/419 167/231/420
f 170/233/421 327/232/419 173/81/418
f 173/81/418 171/79/422 170/233/421
f 169/234/423 168/76/424 172/80/425
f 172/80/426 328/235/427 169/234/428
f 164/236/429 328/235/427 172/80/426
f 172/80/426 165/82/430 164/236/429
f 219/237/431 5/238/431 4/239/432
f 4/239/432 221/240/432 219/237/431
f 221/240/432 4/239/432 7/241/433
f 7/241/433 224/242/434 221/240/432
f 225/131/435 224/242/434 7/241/433
f 7/241/433 15/243/435 225/131/435
f 227/133/436 225/131/435 15/243/435
f 15/243/435 14/244/437 227/133/436
f 227/133/436 14/244/437 16/245/438
f 16/245/438 229/246/439 227/133/436
f 229/246/439 16/245/438 8/247/440
f 8/247/440 198/248/440 229/246/439
f 198/249/440 8/250/440 12/251/441
f 12/251/441 201/107/441 198/249/440
f 201/107/441 12/251/441 11/252/442
f 11/252/442 203/109/442 201/107/441
f 203/109/442 11/252/442 13/253/443
f 13/253/443 206/254/443 203/109/442
f 206/255/443 13/256/443 9/257/444
f 9/257/444 208/258/445 206/255/443
f 210/259/446 208/258/445 9/257/444
f 9/257/444 10/260/447 210/259/446
f 212/261/448 210/259/446 10/260/447
f 10/260/447 1/262/449 212/261/448
f 212/261/448 1/262/449 3/263/450
f 3/263/450 214/264/450 212/261/448
f 214/264/450 3/263/450 2/265/451
f 2/265/451 215/266/451 214/264/450
f 215/266/451 2/265/451 6/267/452
f 6/267/452 218/268/452 215/266/451
f 329/269/453 330/270/453 331/271/454
f 331/271/454 332/272/454 329/269/453
f 332/272/454 331/271/454 333/273/455
f 333/273/455 334/274/455 332/272/454
f 334/274/455 333/273/455 335/275/456
f 335/275/456 336/276/456 334/274/455
f 336/276/456 335/275/456 337/277/457
f 337/277/457 338/278/457 336/276/456
f 338/278/457 337/277/457 339/279/458
f 339/279/458 340/280/458 338/278/457
f 340/280/458 339/279/458 341/281/459
f 341/281/459 216/282/459 340/280/458
f 25/283/21 31/284/22 191/285/460
f 191/285/460 342/286/460 25/283/21
f 342/286/460 191/285/460 343/287/461
f 343/287/461 344/288/462 342/286/460
f 344/288/462 343/287/461 345/289/463
f 345/289/463 346/290/463 344/288/462
f 346/290/463 345/289/463 347/291/464
f 347/291/464 348/292/464 346/290/463
f 348/292/464 347/291/464 349/293/465
f 349/293/465 350/294/465 348/292/464
f 350/294/465 349/293/465 351/295/466
f 351/295/466 352/296/466 350/294/465
f 352/296/466 351/295/466 353/297/467
f 353/297/467 354/298/467 352/296/466
f 354/298/467 353/297/467 355/299/468
f 355/299/468 356/300/468 354/298/467
f 356/300/468 355/299/468 330/270/453
f 330/270/453 329/269/453 356/300/468
f 357/301/469 358/302/469 359/303/470
f 359/303/470 360/304/470 357/301/469
f 360/304/470 359/303/470 361/305/471
f 361/305/471 362/306/471 360/304/470
f 362/306/471 361/305/471 363/307/472
f 363/307/472 364/308/472 362/306/471
f 364/308/472 363/307/472 365/309/473
f 365/309/473 366/310/473 364/308/472
f 366/310/473 365/309/473 367/311/474
f 367/311/474 368/312/474 366/310/473
f 368/312/474 367/311/474 222/313/475
f 222/313/475 369/314/475 368/312/474
f 45/315/246 28/316/245 370/317/476
f 370/317/476 190/318/476 45/315/246
f 190/318/476 370/317/476 371/319/477
f 371/319/477 372/320/478 190/318/476
f 372/320/478 371/319/477 373/321/479
f 373/321/479 374/322/479 372/320/478
f 374/322/479 373/321/479 375/323/480
f 375/323/480 376/324/480 374/322/479
f 376/324/480 375/323/480 377/325/481
f 377/325/481 378/326/481 376/324/480
f 378/326/481 377/325/481 379/327/482
f 379/327/482 380/328/482 378/326/481
f 380/328/482 379/327/482 381/329/483
f 381/329/483 382/330/483 380/328/482
f 382/330/483 381/329/483 383/331/484
f 383/331/484 384/332/484 382/330/483
f 384/332/484 383/331/484 358/302/469
f 358/302/469 357/301/469 384/332/484
f 385/333/15 329/269/15 332/272/15
f 332/272/15 386/334/15 385/333/15
f 386/334/15 332/272/15 334/274/15
f 334/274/15 387/335/15 386/334/15
f 387/335/15 334/274/15 336/276/15
f 336/276/15 388/336/15 387/335/15
f 388/336/15 336/276/15 338/278/15
f 338/278/15 389/337/15 388/336/15
f 389/337/15 338/278/15 340/280/15
f 340/280/15 390/338/15 389/337/15
f 390/338/15 340/280/15 216/282/15
f 216/282/15 217/339/15 390/338/15
f 26/340/15 25/283/15 342/286/15
f 342/286/15 391/341/15 26/340/15
f 391/341/15 342/286/15 344/288/15
f 344/288/15 392/342/15 391/341/15
f 392/342/15 344/288/15 346/290/15
f 346/290/15 393/343/15 392/342/15
f 393/343/15 346/290/15 348/292/15
f 348/292/15 394/344/15 393/343/15
f 394/344/15 348/292/15 350/294/15
f 350/294/15 395/345/15 394/344/15
f 395/345/15 350/294/15 352/296/15
f 352/296/15 396/346/15 395/345/15
f 396/346/15 352/296/15 354/298/15
f 354/298/15 397/347/15 396/346/15
f 397/347/15 354/298/15 356/300/15
f 356/300/15 398/348/15 397/347/15
f 398/348/15 356/300/15 329/269/15
f 329/269/15 385/333/15 398/348/15
f 358/302/14 399/349/14 400/350/14
f 400/350/14 359/303/14 358/302/14
f 359/303/14 400/350/14 401/351/14
f 401/351/14 361/305/14 359/303/14
f 361/305/14 401/351/14 402/352/14
f 402/352/14 363/307/14 361/305/14
f 363/307/14 402/352/14 403/353/14
f 403/353/14 365/309/14 363/307/14
f 365/309/14 403/353/14 404/354/14
f 404/354/14 367/311/14 365/309/14
f 367/311/14 404/354/14 220/355/14
f 220/355/14 222/313/14 367/311/14
f 28/316/14 27/356/14 405/357/14
f 405/357/14 370/317/14 28/316/14
f 370/317/14 405/357/14 406/358/14
f 406/358/14 371/319/14 370/317/14
f 371/319/14 406/358/14 407/359/14
f 407/359/14 373/321/14 371/319/14
f 373/321/14 407/359/14 408/360/14
f 408/360/14 375/323/14 373/321/14
f 375/323/14 408/360/14 409/361/14
f 409/361/14 377/325/14 375/323/14
f 377/325/14 409/361/14 410/362/14
f 410/362/14 379/327/14 377/325/14
f 379/327/14 410/362/14 411/363/14
f 411/363/14 381/329/14 379/327/14
f 381/329/14 411/363/14 412/364/14
f 412/364/14 383/331/14 381/329/14
f 383/331/14 412/364/14 399/349/14
f 399/349/14 358/302/14 383/331/14
f 300/365/232 357/301/14 360/304/14
f 360/304/14 298/366/230 300/365/232
f 298/366/230 360/304/14 362/306/14
f 362/306/14 240/367/158 298/366/230
f 240/367/158 362/306/14 364/308/14
f 364/308/14 239/368/157 240/367/158
f 239/368/157 364/308/14 366/310/14
f 366/310/14 238/369/156 239/368/157
f 238/369/156 366/310/14 368/312/14
f 368/312/14 248/370/173 238/369/156
f 248/370/173 368/312/14 369/314/14
f 369/314/14 228/371/485 248/370/173
f 42/372/219 45/315/486 190/318/487
f 190/318/487 292/373/218 42/372/219
f 292/373/218 190/318/487 372/320/488
f 372/320/488 291/374/217 292/373/218
f 291/374/217 372/320/488 374/322/14
f 374/322/14 290/375/216 291/374/217
f 290/375/216 374/322/14 376/324/14
f 376/324/14 289/376/215 290/375/216
f 289/376/215 376/324/14 378/326/14
f 378/326/14 288/377/214 289/376/215
f 288/377/214 378/326/14 380/328/14
f 380/328/14 305/378/237 288/377/214
f 305/378/237 380/328/14 382/330/14
f 382/330/14 304/379/236 305/378/237
f 304/379/236 382/330/14 384/332/14
f 384/332/14 302/380/234 304/379/236
f 302/380/234 384/332/14 357/301/14
f 357/301/14 300/365/232 302/380/234
f 330/270/15 413/381/489 414/382/490
f 414/382/490 331/271/15 330/270/15
f 331/271/15 414/382/490 242/383/160
f 242/383/160 333/273/15 331/271/15
f 333/273/15 242/383/160 241/384/159
f 241/384/159 335/275/15 333/273/15
f 335/275/15 241/384/159 245/385/163
f 245/385/163 337/277/15 335/275/15
f 337/277/15 245/385/163 247/386/165
f 247/386/165 339/279/15 337/277/15
f 339/279/15 247/386/165 209/387/166
f 209/387/166 341/281/15 339/279/15
f 31/284/491 33/388/227 295/389/226
f 295/389/226 191/285/15 31/284/491
f 191/285/15 295/389/226 294/390/224
f 294/390/224 343/287/492 191/285/15
f 343/287/492 294/390/224 415/391/493
f 415/391/493 345/289/15 343/287/492
f 345/289/15 415/391/493 416/392/494
f 416/392/494 347/291/15 345/289/15
f 347/291/15 416/392/494 417/393/495
f 417/393/495 349/293/15 347/291/15
f 349/293/15 417/393/495 418/394/496
f 418/394/496 351/295/15 349/293/15
f 351/295/15 418/394/496 419/395/497
f 419/395/497 353/297/15 351/295/15
f 353/297/15 419/395/497 420/396/498
f 420/396/498 355/299/15 353/297/15
f 355/299/15 420/396/498 413/381/489
f 413/381/489 330/270/15 355/299/15
f 399/397/499 385/398/499 386/399/500
f 386/399/500 400/400/500 399/397/499
f 400/400/500 386/399/500 387/401/501
f 387/401/501 401/402/501 400/400/500
f 401/402/501 387/401/501 388/403/502
f 388/403/502 402/404/502 401/402/501
f 402/404/502 388/403/502 389/405/503
f 389/405/503 403/406/503 402/404/502
f 403/406/503 389/405/503 390/407/504
f 390/407/504 404/408/504 403/406/503
f 404/408/504 390/407/504 217/409/505
f 217/409/505 220/410/505 404/408/504
f 27/411/506 26/412/506 391/413/507
f 391/413/507 405/414/507 27/411/506
f 405/414/507 391/413/507 392/415/508
f 392/415/508 406/416/508 405/414/507
f 406/416/508 392/415/508 393/417/509
f 393/417/509 407/418/509 406/416/508
f 407/418/509 393/417/509 394/419/510
f 394/419/510 408/420/510 407/418/509
f 408/420/510 394/419/510 395/421/511
f 395/421/511 409/422/511 408/420/510
f 409/422/511 395/421/511 396/423/512
f 396/423/512 410/424/512 409/422/511
f 410/424/512 396/423/512 397/425/513
f 397/425/513 411/426/513 410/424/512
f 411/426/513 397/425/513 398/427/514
f 398/427/514 412/428/514 411/426/513
f 412/428/514 398/427/514 385/398/499
f 385/398/499 399/397/499 412/428/514
f 415/429/493 294/214/224 278/194/204
f 278/194/204 277/193/203 415/429/493
f 416/430/494 415/429/493 277/193/203
f 277/193/203 264/180/190 416/430/494
f 417/431/495 416/430/494 264/180/190
f 264/180/190 262/178/188 417/431/495
f 418/432/496 417/431/495 262/178/188
f 262/178/188 260/176/186 418/432/496
f 419/433/497 418/432/496 260/176/186
f 260/176/186 258/174/184 419/433/497
f 420/434/498 419/433/497 258/174/184
f 258/174/184 256/172/182 420/434/498
f 413/435/489 420/434/498 256/172/182
f 256/172/182 254/170/180 413/435/489
f 414/436/490 413/435/489 254/170/180
f 254/170/180 252/168/178 414/436/490
f 242/150/160 414/436/490 252/168/178
f 252/168/178 243/151/161 242/150/160
